<mxfile host="app.diagrams.net" agent="Mozilla/5.0 (Windows NT 10.0; Win64; x64) AppleWebKit/537.36 (KHTML, like Gecko) Chrome/134.0.0.0 Safari/537.36 Edg/134.0.0.0" version="26.1.1">
  <diagram name="第 1 页" id="_j6Xvlg6FWcO2dIobTae">
    <mxGraphModel dx="1358" dy="744" grid="1" gridSize="10" guides="1" tooltips="1" connect="1" arrows="1" fold="1" page="1" pageScale="1" pageWidth="827" pageHeight="1169" math="0" shadow="0">
      <root>
        <mxCell id="0" />
        <mxCell id="1" parent="0" />
        <mxCell id="A1j4_E4FhUjwNJ8hTGyq-11" style="edgeStyle=orthogonalEdgeStyle;rounded=0;orthogonalLoop=1;jettySize=auto;html=1;entryX=0;entryY=0.5;entryDx=0;entryDy=0;" edge="1" parent="1" source="A1j4_E4FhUjwNJ8hTGyq-2" target="A1j4_E4FhUjwNJ8hTGyq-3">
          <mxGeometry relative="1" as="geometry">
            <Array as="points">
              <mxPoint x="340" y="140" />
              <mxPoint x="340" y="140" />
            </Array>
          </mxGeometry>
        </mxCell>
        <mxCell id="A1j4_E4FhUjwNJ8hTGyq-2" value="认证申请" style="rounded=1;whiteSpace=wrap;html=1;" vertex="1" parent="1">
          <mxGeometry x="90" y="110" width="120" height="60" as="geometry" />
        </mxCell>
        <mxCell id="A1j4_E4FhUjwNJ8hTGyq-12" style="edgeStyle=orthogonalEdgeStyle;rounded=0;orthogonalLoop=1;jettySize=auto;html=1;exitX=1;exitY=0.5;exitDx=0;exitDy=0;entryX=0;entryY=0.5;entryDx=0;entryDy=0;" edge="1" parent="1" source="A1j4_E4FhUjwNJ8hTGyq-3" target="A1j4_E4FhUjwNJ8hTGyq-4">
          <mxGeometry relative="1" as="geometry">
            <mxPoint x="642" y="148" as="targetPoint" />
          </mxGeometry>
        </mxCell>
        <mxCell id="A1j4_E4FhUjwNJ8hTGyq-3" value="认证受理" style="rhombus;whiteSpace=wrap;html=1;" vertex="1" parent="1">
          <mxGeometry x="380" y="100" width="140" height="80" as="geometry" />
        </mxCell>
        <mxCell id="A1j4_E4FhUjwNJ8hTGyq-13" style="edgeStyle=orthogonalEdgeStyle;rounded=0;orthogonalLoop=1;jettySize=auto;html=1;exitX=0.5;exitY=1;exitDx=0;exitDy=0;entryX=0.5;entryY=0;entryDx=0;entryDy=0;" edge="1" parent="1" source="A1j4_E4FhUjwNJ8hTGyq-4" target="A1j4_E4FhUjwNJ8hTGyq-5">
          <mxGeometry relative="1" as="geometry" />
        </mxCell>
        <mxCell id="A1j4_E4FhUjwNJ8hTGyq-4" value="制定认证实施方案" style="rounded=1;whiteSpace=wrap;html=1;" vertex="1" parent="1">
          <mxGeometry x="640" y="110" width="120" height="60" as="geometry" />
        </mxCell>
        <mxCell id="A1j4_E4FhUjwNJ8hTGyq-14" style="edgeStyle=orthogonalEdgeStyle;rounded=0;orthogonalLoop=1;jettySize=auto;html=1;exitX=0;exitY=0.5;exitDx=0;exitDy=0;entryX=1;entryY=0.5;entryDx=0;entryDy=0;" edge="1" parent="1" source="A1j4_E4FhUjwNJ8hTGyq-5" target="A1j4_E4FhUjwNJ8hTGyq-6">
          <mxGeometry relative="1" as="geometry" />
        </mxCell>
        <mxCell id="A1j4_E4FhUjwNJ8hTGyq-5" value="资料技术评审" style="rounded=1;whiteSpace=wrap;html=1;" vertex="1" parent="1">
          <mxGeometry x="640" y="250" width="120" height="60" as="geometry" />
        </mxCell>
        <mxCell id="A1j4_E4FhUjwNJ8hTGyq-15" style="edgeStyle=orthogonalEdgeStyle;rounded=0;orthogonalLoop=1;jettySize=auto;html=1;exitX=0;exitY=0.5;exitDx=0;exitDy=0;entryX=1;entryY=0.5;entryDx=0;entryDy=0;" edge="1" parent="1" source="A1j4_E4FhUjwNJ8hTGyq-6" target="A1j4_E4FhUjwNJ8hTGyq-7">
          <mxGeometry relative="1" as="geometry" />
        </mxCell>
        <mxCell id="A1j4_E4FhUjwNJ8hTGyq-6" value="制定核查计划" style="rounded=1;whiteSpace=wrap;html=1;" vertex="1" parent="1">
          <mxGeometry x="390" y="250" width="120" height="60" as="geometry" />
        </mxCell>
        <mxCell id="A1j4_E4FhUjwNJ8hTGyq-16" style="edgeStyle=orthogonalEdgeStyle;rounded=0;orthogonalLoop=1;jettySize=auto;html=1;exitX=0.5;exitY=1;exitDx=0;exitDy=0;entryX=0.5;entryY=0;entryDx=0;entryDy=0;" edge="1" parent="1" source="A1j4_E4FhUjwNJ8hTGyq-7" target="A1j4_E4FhUjwNJ8hTGyq-8">
          <mxGeometry relative="1" as="geometry" />
        </mxCell>
        <mxCell id="A1j4_E4FhUjwNJ8hTGyq-7" value="现场核查" style="rounded=1;whiteSpace=wrap;html=1;" vertex="1" parent="1">
          <mxGeometry x="90" y="250" width="120" height="60" as="geometry" />
        </mxCell>
        <mxCell id="A1j4_E4FhUjwNJ8hTGyq-18" style="edgeStyle=orthogonalEdgeStyle;rounded=0;orthogonalLoop=1;jettySize=auto;html=1;" edge="1" parent="1" source="A1j4_E4FhUjwNJ8hTGyq-8" target="A1j4_E4FhUjwNJ8hTGyq-9">
          <mxGeometry relative="1" as="geometry" />
        </mxCell>
        <mxCell id="A1j4_E4FhUjwNJ8hTGyq-8" value="认证结果评价与批准" style="rounded=1;whiteSpace=wrap;html=1;" vertex="1" parent="1">
          <mxGeometry x="90" y="390" width="120" height="60" as="geometry" />
        </mxCell>
        <mxCell id="A1j4_E4FhUjwNJ8hTGyq-9" value="颁发证书" style="rounded=1;whiteSpace=wrap;html=1;" vertex="1" parent="1">
          <mxGeometry x="390" y="390" width="120" height="60" as="geometry" />
        </mxCell>
      </root>
    </mxGraphModel>
  </diagram>
</mxfile>
